<mxfile host="app.diagrams.net" modified="2023-11-22T10:23:13.022Z" agent="Mozilla/5.0 (Windows NT 10.0; Win64; x64) AppleWebKit/537.36 (KHTML, like Gecko) Chrome/119.0.0.0 Safari/537.36" etag="Zh9xzkg1zeHxlpXRSKOt" version="22.1.3" type="github">
  <diagram name="Page-1" id="XfOd3elRWcsLbfhrehsd">
    <mxGraphModel dx="1050" dy="623" grid="1" gridSize="10" guides="1" tooltips="1" connect="1" arrows="1" fold="1" page="1" pageScale="1" pageWidth="850" pageHeight="1100" math="0" shadow="0">
      <root>
        <mxCell id="0" />
        <mxCell id="1" parent="0" />
        <mxCell id="-8p4fZR5m2DtFMvJEMKt-3" style="edgeStyle=orthogonalEdgeStyle;rounded=0;orthogonalLoop=1;jettySize=auto;html=1;exitX=0.5;exitY=1;exitDx=0;exitDy=0;entryX=0.5;entryY=0;entryDx=0;entryDy=0;" parent="1" source="-8p4fZR5m2DtFMvJEMKt-1" target="-8p4fZR5m2DtFMvJEMKt-2" edge="1">
          <mxGeometry relative="1" as="geometry" />
        </mxCell>
        <mxCell id="-8p4fZR5m2DtFMvJEMKt-1" value="Login" style="ellipse;whiteSpace=wrap;html=1;aspect=fixed;" parent="1" vertex="1">
          <mxGeometry x="110" y="100" width="60" height="60" as="geometry" />
        </mxCell>
        <mxCell id="-8p4fZR5m2DtFMvJEMKt-6" style="edgeStyle=orthogonalEdgeStyle;rounded=0;orthogonalLoop=1;jettySize=auto;html=1;exitX=1;exitY=0.5;exitDx=0;exitDy=0;" parent="1" source="-8p4fZR5m2DtFMvJEMKt-2" target="-8p4fZR5m2DtFMvJEMKt-5" edge="1">
          <mxGeometry relative="1" as="geometry" />
        </mxCell>
        <mxCell id="-8p4fZR5m2DtFMvJEMKt-9" style="edgeStyle=orthogonalEdgeStyle;rounded=0;orthogonalLoop=1;jettySize=auto;html=1;exitX=0.5;exitY=1;exitDx=0;exitDy=0;" parent="1" source="-8p4fZR5m2DtFMvJEMKt-2" target="-8p4fZR5m2DtFMvJEMKt-4" edge="1">
          <mxGeometry relative="1" as="geometry" />
        </mxCell>
        <mxCell id="-8p4fZR5m2DtFMvJEMKt-2" value="validation" style="rhombus;whiteSpace=wrap;html=1;" parent="1" vertex="1">
          <mxGeometry x="100" y="210" width="80" height="80" as="geometry" />
        </mxCell>
        <mxCell id="-8p4fZR5m2DtFMvJEMKt-12" style="edgeStyle=orthogonalEdgeStyle;rounded=0;orthogonalLoop=1;jettySize=auto;html=1;exitX=1;exitY=0.5;exitDx=0;exitDy=0;entryX=0;entryY=0.5;entryDx=0;entryDy=0;" parent="1" source="-8p4fZR5m2DtFMvJEMKt-4" target="-8p4fZR5m2DtFMvJEMKt-11" edge="1">
          <mxGeometry relative="1" as="geometry" />
        </mxCell>
        <mxCell id="-8p4fZR5m2DtFMvJEMKt-4" value="correct" style="rounded=0;whiteSpace=wrap;html=1;" parent="1" vertex="1">
          <mxGeometry x="80" y="380" width="120" height="60" as="geometry" />
        </mxCell>
        <mxCell id="-8p4fZR5m2DtFMvJEMKt-10" style="edgeStyle=orthogonalEdgeStyle;rounded=0;orthogonalLoop=1;jettySize=auto;html=1;exitX=0.5;exitY=0;exitDx=0;exitDy=0;entryX=1;entryY=0.5;entryDx=0;entryDy=0;" parent="1" source="-8p4fZR5m2DtFMvJEMKt-5" target="-8p4fZR5m2DtFMvJEMKt-1" edge="1">
          <mxGeometry relative="1" as="geometry" />
        </mxCell>
        <mxCell id="-8p4fZR5m2DtFMvJEMKt-5" value="wrong" style="rounded=0;whiteSpace=wrap;html=1;" parent="1" vertex="1">
          <mxGeometry x="240" y="220" width="120" height="60" as="geometry" />
        </mxCell>
        <mxCell id="-8p4fZR5m2DtFMvJEMKt-18" style="edgeStyle=orthogonalEdgeStyle;rounded=0;orthogonalLoop=1;jettySize=auto;html=1;exitX=1;exitY=0.5;exitDx=0;exitDy=0;" parent="1" source="-8p4fZR5m2DtFMvJEMKt-11" edge="1">
          <mxGeometry relative="1" as="geometry">
            <mxPoint x="460" y="570" as="targetPoint" />
          </mxGeometry>
        </mxCell>
        <mxCell id="-8p4fZR5m2DtFMvJEMKt-11" value="Dashboard" style="rounded=0;whiteSpace=wrap;html=1;" parent="1" vertex="1">
          <mxGeometry x="310" y="380" width="120" height="60" as="geometry" />
        </mxCell>
        <mxCell id="-8p4fZR5m2DtFMvJEMKt-32" style="edgeStyle=orthogonalEdgeStyle;rounded=0;orthogonalLoop=1;jettySize=auto;html=1;exitX=1;exitY=0.5;exitDx=0;exitDy=0;" parent="1" source="-8p4fZR5m2DtFMvJEMKt-14" target="-8p4fZR5m2DtFMvJEMKt-31" edge="1">
          <mxGeometry relative="1" as="geometry" />
        </mxCell>
        <mxCell id="-8p4fZR5m2DtFMvJEMKt-34" style="edgeStyle=orthogonalEdgeStyle;rounded=0;orthogonalLoop=1;jettySize=auto;html=1;exitX=1;exitY=0.75;exitDx=0;exitDy=0;" parent="1" source="-8p4fZR5m2DtFMvJEMKt-14" target="-8p4fZR5m2DtFMvJEMKt-33" edge="1">
          <mxGeometry relative="1" as="geometry" />
        </mxCell>
        <mxCell id="-8p4fZR5m2DtFMvJEMKt-14" value="Add / view / Update / Delete patient" style="rounded=0;whiteSpace=wrap;html=1;" parent="1" vertex="1">
          <mxGeometry x="550" y="380" width="120" height="60" as="geometry" />
        </mxCell>
        <mxCell id="-8p4fZR5m2DtFMvJEMKt-17" value="" style="endArrow=classic;html=1;rounded=0;entryX=0;entryY=0.5;entryDx=0;entryDy=0;" parent="1" target="-8p4fZR5m2DtFMvJEMKt-14" edge="1">
          <mxGeometry width="50" height="50" relative="1" as="geometry">
            <mxPoint x="490" y="410" as="sourcePoint" />
            <mxPoint x="450" y="380" as="targetPoint" />
          </mxGeometry>
        </mxCell>
        <mxCell id="-8p4fZR5m2DtFMvJEMKt-19" value="" style="endArrow=classic;html=1;rounded=0;" parent="1" edge="1">
          <mxGeometry width="50" height="50" relative="1" as="geometry">
            <mxPoint x="460" y="570" as="sourcePoint" />
            <mxPoint x="490" y="570" as="targetPoint" />
          </mxGeometry>
        </mxCell>
        <mxCell id="-8p4fZR5m2DtFMvJEMKt-20" value="" style="endArrow=classic;html=1;rounded=0;" parent="1" edge="1">
          <mxGeometry width="50" height="50" relative="1" as="geometry">
            <mxPoint x="490" y="500" as="sourcePoint" />
            <mxPoint x="550" y="500" as="targetPoint" />
          </mxGeometry>
        </mxCell>
        <mxCell id="-8p4fZR5m2DtFMvJEMKt-21" value="Patient payment&amp;nbsp; Details" style="rounded=0;whiteSpace=wrap;html=1;" parent="1" vertex="1">
          <mxGeometry x="551" y="471" width="120" height="60" as="geometry" />
        </mxCell>
        <mxCell id="-8p4fZR5m2DtFMvJEMKt-22" value="" style="endArrow=classic;html=1;rounded=0;" parent="1" edge="1">
          <mxGeometry width="50" height="50" relative="1" as="geometry">
            <mxPoint x="491" y="590" as="sourcePoint" />
            <mxPoint x="551" y="590" as="targetPoint" />
          </mxGeometry>
        </mxCell>
        <mxCell id="-8p4fZR5m2DtFMvJEMKt-23" value="Patient register&amp;nbsp; Details" style="rounded=0;whiteSpace=wrap;html=1;" parent="1" vertex="1">
          <mxGeometry x="552" y="561" width="120" height="60" as="geometry" />
        </mxCell>
        <mxCell id="-8p4fZR5m2DtFMvJEMKt-24" value="Patient treatment" style="rounded=0;whiteSpace=wrap;html=1;" parent="1" vertex="1">
          <mxGeometry x="550" y="645" width="120" height="60" as="geometry" />
        </mxCell>
        <mxCell id="-8p4fZR5m2DtFMvJEMKt-25" value="" style="endArrow=classic;html=1;rounded=0;" parent="1" edge="1">
          <mxGeometry width="50" height="50" relative="1" as="geometry">
            <mxPoint x="489" y="674" as="sourcePoint" />
            <mxPoint x="549" y="674" as="targetPoint" />
          </mxGeometry>
        </mxCell>
        <mxCell id="-8p4fZR5m2DtFMvJEMKt-26" value="" style="endArrow=classic;html=1;rounded=0;" parent="1" edge="1">
          <mxGeometry width="50" height="50" relative="1" as="geometry">
            <mxPoint x="489" y="763" as="sourcePoint" />
            <mxPoint x="549" y="763" as="targetPoint" />
          </mxGeometry>
        </mxCell>
        <mxCell id="-8p4fZR5m2DtFMvJEMKt-27" value="Patient apoinment" style="rounded=0;whiteSpace=wrap;html=1;" parent="1" vertex="1">
          <mxGeometry x="550" y="734" width="120" height="60" as="geometry" />
        </mxCell>
        <mxCell id="-8p4fZR5m2DtFMvJEMKt-28" value="" style="endArrow=classic;html=1;rounded=0;" parent="1" edge="1">
          <mxGeometry width="50" height="50" relative="1" as="geometry">
            <mxPoint x="490" y="846" as="sourcePoint" />
            <mxPoint x="550" y="846" as="targetPoint" />
          </mxGeometry>
        </mxCell>
        <mxCell id="-8p4fZR5m2DtFMvJEMKt-29" value="Patient&amp;nbsp; Details" style="rounded=0;whiteSpace=wrap;html=1;" parent="1" vertex="1">
          <mxGeometry x="551" y="817" width="120" height="60" as="geometry" />
        </mxCell>
        <mxCell id="ORt9paaPXE_dKZevK6GV-2" value="" style="edgeStyle=orthogonalEdgeStyle;rounded=0;orthogonalLoop=1;jettySize=auto;html=1;" parent="1" source="-8p4fZR5m2DtFMvJEMKt-30" target="ORt9paaPXE_dKZevK6GV-1" edge="1">
          <mxGeometry relative="1" as="geometry" />
        </mxCell>
        <mxCell id="-8p4fZR5m2DtFMvJEMKt-30" value="name,age" style="shape=process;whiteSpace=wrap;html=1;backgroundOutline=1;" parent="1" vertex="1">
          <mxGeometry x="960" y="270" width="120" height="60" as="geometry" />
        </mxCell>
        <mxCell id="-8p4fZR5m2DtFMvJEMKt-35" style="edgeStyle=orthogonalEdgeStyle;rounded=0;orthogonalLoop=1;jettySize=auto;html=1;exitX=1;exitY=0.5;exitDx=0;exitDy=0;" parent="1" source="-8p4fZR5m2DtFMvJEMKt-31" target="-8p4fZR5m2DtFMvJEMKt-30" edge="1">
          <mxGeometry relative="1" as="geometry" />
        </mxCell>
        <mxCell id="-8p4fZR5m2DtFMvJEMKt-31" value="Add" style="rounded=0;whiteSpace=wrap;html=1;" parent="1" vertex="1">
          <mxGeometry x="760" y="270" width="120" height="60" as="geometry" />
        </mxCell>
        <mxCell id="-8p4fZR5m2DtFMvJEMKt-33" value="View" style="rounded=0;whiteSpace=wrap;html=1;" parent="1" vertex="1">
          <mxGeometry x="790" y="440" width="120" height="60" as="geometry" />
        </mxCell>
        <mxCell id="ORt9paaPXE_dKZevK6GV-1" value="Gender Adhaar Number Gmail" style="shape=process;whiteSpace=wrap;html=1;backgroundOutline=1;" parent="1" vertex="1">
          <mxGeometry x="1160" y="270" width="120" height="60" as="geometry" />
        </mxCell>
        <mxCell id="4UqDPItdrWX-_zHGo7J1-1" value="" style="endArrow=none;html=1;rounded=0;" edge="1" parent="1">
          <mxGeometry width="50" height="50" relative="1" as="geometry">
            <mxPoint x="490" y="840" as="sourcePoint" />
            <mxPoint x="490" y="410" as="targetPoint" />
          </mxGeometry>
        </mxCell>
      </root>
    </mxGraphModel>
  </diagram>
</mxfile>
